# Blender v2.83.12 OBJ File: ''
# www.blender.org
mtllib house.mtl
o House_Facade_House
v 2.834616 1.018394 9.583475
v 2.834613 1.017946 10.000790
v -1.142690 1.043939 10.008166
v -1.142687 1.044459 9.491857
v -1.130099 -1.096756 10.008850
v -1.130099 -1.096755 9.491857
v -10.000000 -2.000000 10.000000
v -10.000000 2.000000 10.000000
v -10.000000 2.000000 -10.000000
v -10.000000 -2.000000 -10.000000
v 10.000000 2.000000 -10.000000
v 10.000000 -2.000000 -10.000000
v 10.000000 2.000000 10.000000
v 10.000000 -2.000000 10.000000
v 2.813320 -1.112038 9.583475
v 2.814440 -1.112049 10.005402
v 2.835745 1.018383 10.008447
v -9.492072 1.600000 9.583476
v -1.142687 1.044459 10.008166
vt 0.579562 0.837671
vt 0.579562 0.837671
vt 0.581598 0.890048
vt 0.581598 0.890048
vt 0.000000 0.000000
vt 0.000000 0.000000
vt 0.375000 0.000000
vt 0.625000 0.000000
vt 0.625000 0.250000
vt 0.375000 0.250000
vt 0.625000 0.500000
vt 0.375000 0.500000
vt 0.625000 0.750000
vt 0.375000 0.750000
vt 0.125000 0.500000
vt 0.125000 0.750000
vt 0.875000 0.500000
vt 0.875000 0.750000
vt 0.000000 0.000000
vt 0.000000 0.000000
vt 0.000000 0.000000
vt 0.000000 0.000000
vn -0.0065 -1.0000 -0.0010
vn 1.0000 0.0059 0.0000
vn -1.0000 0.0000 0.0000
vn 0.0000 0.0000 -1.0000
vn 1.0000 0.0000 0.0000
vn 0.0000 -1.0000 -0.0000
vn 0.0000 1.0000 0.0000
vn -0.9999 0.0100 0.0027
vn 0.0039 1.0000 0.0000
vn -0.0009 0.0011 1.0000
vn -0.0003 0.0063 1.0000
vn -0.0002 -0.0059 1.0000
vn -0.0010 -0.0009 1.0000
vn 0.0004 -0.0061 1.0000
vn 0.0009 -0.0015 1.0000
vn 0.0010 -0.0005 1.0000
vn -0.0000 0.0086 1.0000
usemtl Orange
s 1
f 1/1/1 2/2/1 3/3/1 4/4/1
f 4/4/2 3/3/2 5/5/2 6/6/2
f 7/7/3 8/8/3 9/9/3 10/10/3
f 10/10/4 9/9/4 11/11/4 12/12/4
f 12/12/5 11/11/5 13/13/5 14/14/5
f 10/15/6 12/12/6 14/14/6 7/16/6
f 11/11/7 9/17/7 8/18/7 13/13/7
f 15/19/8 16/20/8 17/21/8 1/22/8
f 15/19/9 6/6/9 5/5/9 16/20/9
f 3/3/10 8/8/11 7/7/12 5/5/13
f 14/14/14 16/20/15 5/5/13 7/7/12
f 14/14/14 13/13/16 17/21/16 16/20/15
f 13/13/17 8/8/11 3/3/10 17/21/17
l 19 4
l 13 18
o House_Interior_Interior
v -9.492072 -1.600001 9.583476
v -9.492072 -1.600000 -9.583476
v -9.492072 1.600001 -9.583476
v -9.492072 1.600000 9.583476
v 9.492072 -1.600000 -9.583476
v 9.492072 1.600001 -9.583476
v 9.492072 -1.600001 9.583476
v 9.492072 1.600000 9.583476
v -6.692344 1.600000 9.583476
v -1.142687 1.044459 9.491857
v 2.834616 1.018394 9.583475
v -1.130099 -1.096755 9.491857
v 2.813320 -1.112038 9.583475
vt 0.375000 0.000000
vt 0.375000 0.250000
vt 0.625000 0.250000
vt 0.625000 0.000000
vt 0.375000 0.500000
vt 0.625000 0.500000
vt 0.375000 0.750000
vt 0.625000 0.750000
vt 0.838131 0.750000
vt 0.875000 0.750000
vt 0.875000 0.500000
vt 0.581598 0.890048
vt 0.000000 0.000000
vt 0.000000 0.000000
vt 0.000000 0.000000
vt 0.000000 0.000000
vn 1.0000 0.0000 0.0000
vn 0.0000 0.0000 1.0000
vn -1.0000 0.0000 0.0000
vn 0.0000 -1.0000 -0.0000
vn 0.0041 0.0863 -0.9963
vn -0.0110 -0.0000 -0.9999
vn 0.0000 -0.0000 -1.0000
vn 0.0039 -0.0986 -0.9951
vn 0.0000 1.0000 0.0000
usemtl Material.002
s 1
f 20/23/18 21/24/18 22/25/18 23/26/18
f 21/24/19 24/27/19 25/28/19 22/25/19
f 24/27/20 26/29/20 27/30/20 25/28/20
f 25/28/21 27/30/21 28/31/21 23/32/21 22/33/21
f 29/34/22 23/26/22 27/35/22 30/36/22
f 29/34/23 31/37/23 20/23/23 23/26/23
f 32/38/24 30/36/24 27/30/24 26/29/24
f 32/38/25 26/29/25 20/23/25 31/37/25
f 21/24/26 20/23/26 26/29/26 24/27/26
