# Blender v2.83.12 OBJ File: ''
# www.blender.org
o Plane_Plane.002
v 1.000000 0.999419 0.034095
v 1.000000 -0.999419 -0.034095
v -1.000000 -0.999419 -0.034095
v -1.000000 0.999419 0.034095
v 1.000000 0.999419 0.034095
v -1.000000 0.999419 0.034095
v -1.000000 -0.999419 -0.034095
v 1.000000 -0.999419 -0.034095
vt 0.000000 0.000000
vt 1.000000 0.000000
vt 1.000000 1.000000
vt 0.000000 1.000000
vt 0.000000 0.000000
vt 0.000000 1.000000
vt 1.000000 1.000000
vt 1.000000 0.000000
vn -0.0000 0.0341 -0.9994
vn 0.0000 -0.0341 0.9994
s 1
f 1/1/1 2/2/1 3/3/1 4/4/1
f 5/5/2 6/6/2 7/7/2 8/8/2
